<svg width="591" height="293" viewBox="0 0 591 293" fill="none" xmlns="http://www.w3.org/2000/svg"><g style="mix-blend-mode:lighten" opacity=".2"><path d="M9.732 74.997c1.647 1.766 3.734 2.631 5.725 1.956 1.245-.427 2.738-2.099 2.928-3.888.154-1.364-.972-3.142-2.395-4.706l11.534-12.21c.308-.07.604-.165.877-.307 1.719 1.54 3.283 2.275 5.085 1.754 1.565-.462 3.035-2.015 3.295-4.03.166-1.316-.972-3.094-2.252-4.564a49 49 0 0 0 1.221-1.517l10.265-10.988c-10.609-11.154-20.328-22.095-29.74-34.02.462-1.22 1.86-2.252 3.236-2.477C33.296 17.555 48.41 33.711 64.589 49.24c26.54 25.46 55.32 47.982 86.542 67.469 91.414 57.086 195.451 78.683 301.374 55.427 34.671-7.61 68.074-19.476 100.125-34.767.961-.462 2.549 2.869 1.838 3.639l-15.991 7.326 24.075 62.799-43.194-12.612-22.13 37.765-24.857-64.636-21.976 5.274 10.514 65.348c-2.051.344-7.148-4.196-6.555-4.551-.308.177-1.731.557-2.075.367l-10.324-5.559 2.786-1.755c-1.482-.213-2.905-.059-3.165-.663l-1.292-2.999-.759 4.006-18.124-9.66-29.467 32.514-11.095-68.466-20.91.178-7.479 68.833-32.562-30.914-36.935 23.671 7.337-69.378-22.877-5.452-19.226 63.593-2.868-3.295c-.629-.723-.961-2.762-1.079-4.03l-1.351.569-7.409-10.478 3.544-.166c-1.268-.854-2.809-1.292-2.785-2.063l.095-3.129-2.43 3.212-12.091-16.761-40.681 16.322 19.938-66.237c1.529-.509 2.453-1.375.581-1.256l-23.067-11.403-34.612 56.932-16.311-41.854-43.43 5.654 35.003-57.857-21.585-16.393c-.605.711-1.411 1.505-2.122 2.027-.178.094-.344.213-.51.332-.19.106-.38.19-.533.225-2.36-2.596-5.512-2.49-7.373-.368-2.039 2.336-.818 5.192 1.363 7.29a3 3 0 0 1-.142.202c-.071.095-.095.213-.154.32l-10.49 11.083a4.5 4.5 0 0 0-.866.912l-.356.38c-1.647-1.849-3.947-2.691-5.89-2.086-1.352.426-2.976 2.418-2.952 4.433.012 1.28 1.268 2.868 2.49 4.445l-12.08 12.647c-1.742-1.624-3.366-2.655-5.06-2.299-1.032.213-2.312 1.304-3.628 2.548-.036-.047-.06-.095-.095-.142l-3.674-24.75c-.332-2.252-.344-4.054-.913-6.175-.498-1.85-.866-3.675-1.304-5.678l-11.605-1.09c.498-2.952.119-4.825-1.612-6.117-1.422-1.067-4.018-1.126-5.464.154-1.233 1.09-1.565 3.177-1.79 5.204-9.044.497-6.069-2.715-9.85-2.833-2.786-.083-2.466 3.271-13.039.83l9.684-10.254.071-.071z" fill="#e2e2e2"/><path d="m450.063 216.965 1.494 4.054.296-3.509c.071-.818 1.375-1.28 2.667-1.991l-2.797-.486-1.541-3.224-.498 3.271c-.107.688-1.731.889-2.904 1.482l3.271.403zm-2.502-22.13-.023-4.042 3.473-1.434-3.367-.451c-.794-.107-.853-1.944-1.707-3.497l-.284 3.722-2.679 1.364c2.833.403 3.343 1.197 4.587 4.338m-10.371 14.01c.367 1.174.415 1.15.32-.118.118-.806-.119-2.181.332-2.43l2.252-1.209-2.406-.889c-.629-.237-.925-1.47-1.541-2.596l-.439 2.762c-.107.699-1.731 1.043-2.797 1.671l2.453.415c.64.107 1.257 1.494 1.838 2.394zm-10.798 11.913c.616.107.877 1.043 1.991 3.201l.154-3.319 3.449-1.375-3.568-.463-1.517-3.2-.225 3.011c-.047.699-1.529 1.102-2.608 1.766l2.312.391zm-2.324-22.818.522-3.117c.13-.759 1.742-1.091 2.619-1.624-.924-.284-2.785-.213-3.093-.865l-1.328-2.798-.51 3.189c-.13.818-1.92 1.102-2.868 1.612l3.248.332 1.41 3.26zm-9.814 15.967.296-3.402c.072-.865 1.897-1.41 2.691-1.991-.853-.142-2.916-.036-3.188-.723l-1.126-2.881-.451 3.13c-.095.675-1.434 1.126-2.216 1.659.723.285 2.501.569 2.738 1.126l1.268 3.082zm-10.609 10.929 1.564 3.295.249-3.331c.06-.877 1.766-1.232 2.727-1.754-.972-.344-2.762-.166-3.047-.865l-1.41-3.39-.261 3.437c-.059.83-1.612 1.28-2.774 1.98.747.201 2.644-.048 2.975.628zm-9.921 15.231 1.47 3.165.45-3.129c.095-.699 1.553-.925 2.537-1.434-.652-.368-2.501-.237-2.821-.83l-1.518-2.892-.462 3.165c-.107.711-1.825.924-2.916 1.493l3.272.462zm7.195-38.12.379-3.627 2.56-1.375c-1.09-.297-2.643-.131-2.904-.688l-1.292-2.726c-.237 1.019-.118 2.548-.533 3.117-.474.664-2.24 1.032-3.224 1.435l3.354.474c.676.095.794 1.612 1.672 3.39zm-11.321 12.209 1.458 3.058.178-3.331 2.608-1.505-2.572-.427c-.558-.095-.783-1.458-.984-2.3-.32-.557-1.02-1.422-.783-.711-.106 1.091.155 2.857-.331 3.177l-2.312 1.482c1.031.249 2.501.083 2.738.557m-4.35-26.006c.557.64.972 2.05 1.506 3.473l.403-3.438c.094-.747 1.612-1.256 2.584-1.92-5.903-.439-1.577-2.063-7.61 1.6.747.059 2.643-.261 3.117.285m-123.62-4.422c-.497-.581-1.908-1.126-1.955-1.79l-.237-3.212-1.518 2.347c-.379.581-1.884.332-3.058.486l1.944 1.553c.51.403.249 1.92.249 3.307l1.351-1.98c.415-.604 2.193-.663 3.224-.711m-12.362 24.833.202 3.366 1.422-2.299c.379-.605 1.98-.617 3.094-.854-2.098-.96-2.288-2.43-2.252-5.18l-1.233 2.62c-.32.676-1.885.593-3.39.723.723.569 2.11.913 2.145 1.624zm-7.942-15.753.178 4.03 1.079-2.809c.284-.747 2.027-.664 3.603-.664-2.418-1.067-2.762-2.596-2.335-5.204l-1.612 2.371c-.415.605-1.719.379-3.094.522l2.169 1.742zm-4.007-17.342c-.676-.509-.178-2.655-.178-3.58l-1.967 2.478c-.51.652-2.312.296-3.296.486l2.336 1.327c.58.332.308 1.85.485 3.426l1.684-2.465c.415-.593 2.702.047 3.366.142l-2.418-1.814zm-10.561 26.113c.522.356.143 2.193.166 3.308l1.755-2.407c.367-.509 1.481-.201 2.726-.296-.569-.51-1.814-1.031-1.849-1.624l-.226-3.283c-.64.746-1.137 2.489-1.837 2.548l-2.928.249zm4.374-40.23c-1.624-1.672-4.231-2.252-6.804-2.312.771.712 2.087 1.233 2.098 1.85l.06 3.259 1.73-2.631c.368-.557 1.731-.06 2.928-.166zm-12.778 24.299c.569.356.474 1.695.497 3.782l2.051-2.928 3.248.261-2.454-1.755c-.604-.426-.237-2.193-.498-3.757l-1.612 3.011-3.473-.024 2.264 1.398zm-3.485-17.021c-.687-.474-.284-2.596-.438-3.829l-1.529 2.738c-.368.652-2.359.498-3.189.546.865.628 1.79 1.09 2.181 1.718.403.629 0 2.656.214 3.9l1.706-3.248c.368-.711 2.632-.083 3.533-.094zm-10.716 26.125c.486.403.285 1.813.427 3.342l1.268-2.062c.368-.593 2.158-.51 3.154-.557-.51-.522-2.17-1.446-2.134-2.146l.166-3.176-1.873 2.643c-.439.616-1.968.356-2.963.344l1.967 1.612zm2.146-43.834a26.3 26.3 0 0 1-4.35 1.6l1.718 1.245c.51.367.297 1.908.427 3.437l1.624-2.335c.439-.64 2.584-.296 3.07-.26-1.47-.83-2.56-2.407-2.477-3.699zm-17.934 53.364c.593.45.344 2.418.332 3.746l1.481-2.3c.415-.64 2.087-.592 3.118-.711-.652-.628-2.169-1.339-2.181-1.956l-.048-3.212-1.635 2.999-3.189-.142 2.098 1.588zm5.642-26.67 2.015 1.387c.522.355.356 2.477.332 3.485l2.003-2.738 3.308.177-2.549-1.754c-.616-.427-.249-2.252-.332-3.283l-1.636 2.347c-.343.498-1.849.32-3.153.391zM79.193 72.14c-2.406-1.53-5.24-.273-6.247 1.766-1.043 2.11-.521 4.706 1.826 6.069 1.73 1.008 4.563.38 5.784-1.387 1.387-2.003 1.15-4.872-1.351-6.46zM70.967 95.8c2.122 1.149 4.848.829 6.2-1.601 1.066-1.92.734-4.753-1.779-6.152-2.11-1.173-4.789-.308-5.808 1.422-1.363 2.312-.925 5.086 1.387 6.33m-5.145-36.366c-2.217-1.624-5.062-.83-6.39 1.21-1.22 1.884-1.066 4.764 1.6 6.4 1.4.865 4.03.688 5.667-1.126 1.446-1.6 1.54-4.718-.877-6.484m-5.737 31.851c-2.548-.984-5.108.604-5.808 2.536-.865 2.395.391 4.931 2.335 5.773 2.418 1.055 4.92-.214 5.856-2.205 1.055-2.24.32-5.05-2.383-6.104m-6.448 24.512c2.5.676 4.8-.877 5.452-2.88.818-2.501-.379-5.026-3.247-5.785-2.62-.687-4.931 1.316-5.346 3.26-.546 2.56 1.043 4.824 3.14 5.405m3.462-33c1.814 1.197 4.493 1.174 6.283-1.245 1.126-1.517 1.066-4.599-1.304-6.175-2.193-1.458-4.931-.747-6.294 1.351-1.186 1.837-.854 4.647 1.303 6.081zm-4.718-36.07c-2.205-1.79-5.085-1.185-6.602.866-1.21 1.623-.782 4.587.77 5.89 2.04 1.72 4.611 1.459 6.354-.355 1.54-1.588 1.754-4.564-.522-6.4m-9.921 39.696c1.885 1.245 4.516.64 5.891-1.114 1.53-1.944 1.351-4.907-1.22-6.626-2.265-1.517-4.956-.32-6.177 1.576-1.292 2.004-.568 4.79 1.506 6.164m.486-16.903c1.837 1.66 4.599 1.376 6.33-.343 1.564-1.553 1.742-4.54-.463-6.413-2.18-1.86-5.037-1.233-6.65.854-1.209 1.564-.841 4.445.783 5.903m-14.307 3.864c1.66 1.209 4.516.806 5.843-.723 1.707-1.98 1.577-4.896-.699-6.674-2.205-1.719-5.156-.758-6.377 1.138-1.316 2.027-.877 4.706 1.245 6.259z" fill="#000"/><path d="M65.822 59.433c-2.217-1.624-5.062-.83-6.39 1.21-1.22 1.884-1.066 4.764 1.6 6.4 1.4.865 4.03.688 5.667-1.126 1.446-1.6 1.54-4.718-.877-6.484m-18.704 19.25c-2.264-1.517-4.955-.32-6.176 1.576-1.292 2.004-.569 4.79 1.506 6.164 1.884 1.245 4.516.64 5.89-1.114 1.53-1.944 1.352-4.907-1.22-6.626m32.075-6.543c-2.406-1.53-5.24-.273-6.247 1.766-1.043 2.11-.521 4.706 1.826 6.069 1.73 1.008 4.563.38 5.784-1.387 1.387-2.003 1.15-4.872-1.351-6.46zM33.77 66c-2.205-1.719-5.156-.758-6.377 1.138-1.316 2.027-.877 4.706 1.245 6.259 1.66 1.209 4.516.806 5.843-.723 1.707-1.98 1.577-4.896-.699-6.674zm18.61-19.274c-2.205-1.79-5.085-1.185-6.602.866-1.21 1.623-.782 4.587.77 5.89 2.04 1.72 4.611 1.459 6.354-.355 1.54-1.588 1.754-4.564-.522-6.4m7.705 44.557c-2.548-.984-5.108.604-5.808 2.536-.865 2.395.391 4.931 2.335 5.773 2.418 1.055 4.92-.214 5.856-2.205 1.055-2.24.32-5.05-2.383-6.104m-11.273-28.52c-2.18-1.86-5.037-1.233-6.65.854-1.209 1.564-.841 4.445.783 5.903 1.837 1.66 4.599 1.375 6.33-.344 1.564-1.553 1.742-4.54-.463-6.413m13.277 12.6c-2.193-1.458-4.931-.747-6.295 1.352-1.185 1.837-.853 4.646 1.304 6.08 1.814 1.197 4.493 1.174 6.283-1.244 1.126-1.518 1.066-4.6-1.304-6.176zm-6.247 31.779c-2.62-.687-4.931 1.316-5.346 3.26-.546 2.56 1.043 4.824 3.14 5.405 2.502.676 4.801-.877 5.453-2.881.818-2.501-.379-5.025-3.247-5.784m-3.426 24.335c-.83-1.896-1.873-3.686-2.999-5.429.463-1.92 2.738-3.852 5.322-3.177 1.743.463 2.81 1.589 3.248 2.94a5 5 0 0 0-.308.379 13 13 0 0 1-.747.866c-1.481 1.493-2.951 2.999-4.492 4.421zm20.661-27.381c1.576.415 2.631 1.375 3.14 2.572-1.647 2.003-3.875 3.437-5.404 5.547-.119.131-.19.273-.297.415-1.92-.723-3.295-2.856-2.785-5.263.415-1.944 2.738-3.947 5.346-3.259zm18.384-19.57c1.387.367 2.37 1.15 2.94 2.145-.237.25-.45.522-.605.818-.047.095-.118.19-.177.285-.664.83-1.458 1.564-2.253 2.275a24 24 0 0 0-1.363 1.292c-.486.51-.9 1.067-1.315 1.636-1.802-.794-3.07-2.868-2.585-5.18.415-1.944 2.739-3.947 5.346-3.26zM28.793 55.64a13.4 13.4 0 0 0 2.785-2.643c.652-.842 1.233-1.72 1.825-2.596.32-.415.652-.83.984-1.233 2.122 1.031 2.94 3.224 2.229 5.405-.652 2.003-2.952 3.556-5.453 2.88a4.32 4.32 0 0 1-2.43-1.79.3.3 0 0 0 .06-.035zM10.929 73.716c.569-.687 1.09-1.398 1.707-2.05.984-1.032 2.05-1.98 3.01-3.023 2.134 1.02 2.964 3.236 2.253 5.417-.652 2.003-2.952 3.556-5.453 2.88-1.09-.296-2.027-1.055-2.62-2.062.38-.368.747-.747 1.091-1.162zm20.352 14.308c-2.548-.486-5.168-.652-7.764-.57a4.64 4.64 0 0 1-.332-2.915c.415-1.944 2.739-3.948 5.346-3.26 2.869.759 4.054 3.283 3.248 5.785a4 4 0 0 1-.486.971zm44.107.036c-2.11-1.174-4.789-.309-5.808 1.422-1.363 2.311-.925 5.085 1.387 6.33 2.122 1.15 4.848.83 6.2-1.6 1.066-1.921.734-4.754-1.779-6.153m329.821 140.072.249-3.331c.06-.877 1.766-1.232 2.727-1.754-.972-.344-2.762-.166-3.047-.865l-1.41-3.39-.261 3.437c-.059.83-1.612 1.28-2.774 1.98.747.201 2.644-.048 2.975.628l1.565 3.295zm-193.116-54.419 1.707-3.248c.367-.711 2.631-.083 3.532-.095l-2.477-1.73c-.688-.474-.285-2.596-.439-3.829l-1.529 2.738c-.367.652-2.359.498-3.189.545.866.629 1.79 1.091 2.181 1.719.392.628 0 2.655.214 3.9m216.29 50.235.154-3.319 3.449-1.375-3.568-.462-1.517-3.201-.225 3.011c-.047.699-1.529 1.102-2.608 1.766l2.312.391c.616.107.877 1.044 1.991 3.201zm21.68-6.982 1.494 4.054.296-3.509c.071-.818 1.375-1.28 2.667-1.991l-2.797-.486-1.541-3.224-.498 3.271c-.107.688-1.731.889-2.904 1.482l3.271.403zm-2.502-22.13-.023-4.042 3.473-1.434-3.367-.451c-.794-.107-.853-1.944-1.707-3.497l-.284 3.722-2.679 1.364c2.833.403 3.343 1.197 4.587 4.338m-212.863-15.232 1.683-2.465c.415-.593 2.702.047 3.366.142l-2.418-1.814c-.676-.509-.178-2.655-.178-3.58l-1.968 2.478c-.509.652-2.311.296-3.295.486l2.335 1.327c.581.332.309 1.85.486 3.426zm-38.346 2.881 2.003-2.738 3.308.177-2.549-1.754c-.616-.427-.249-2.252-.332-3.283l-1.636 2.347c-.343.498-1.849.32-3.153.391l2.015 1.387c.522.355.356 2.477.332 3.485zm22.486 6.946 2.05-2.928 3.248.261-2.453-1.755c-.605-.426-.237-2.193-.498-3.757l-1.612 3.011-3.473-.024 2.264 1.398c.569.356.474 1.696.497 3.782zm174.886 50.637 1.47 3.165.45-3.129c.095-.699 1.553-.925 2.537-1.434-.652-.368-2.501-.237-2.821-.83l-1.518-2.892-.462 3.165c-.107.711-1.825.924-2.916 1.493l3.272.462zm-152.4-47.259.178 4.03 1.079-2.809c.284-.747 2.027-.664 3.603-.664-2.418-1.067-2.762-2.596-2.335-5.204l-1.612 2.371c-.403.605-1.719.379-3.094.522l2.169 1.742zm-36.746 5.286 1.268-2.062c.368-.593 2.158-.51 3.154-.557-.51-.522-2.17-1.446-2.134-2.146l.166-3.176-1.873 2.643c-.439.616-1.968.356-2.963.344l1.967 1.612c.486.403.285 1.813.427 3.342zm52.475-11.663 1.351-1.98c.415-.604 2.193-.664 3.224-.711-.497-.581-1.908-1.126-1.955-1.79l-.237-3.212-1.518 2.347c-.379.581-1.884.332-3.058.486l1.944 1.553c.51.403.249 1.92.249 3.307m329.431 106.384 1.422-2.299c.38-.605 1.98-.617 3.094-.854-2.098-.96-2.288-2.43-2.252-5.18l-1.233 2.62c-.32.675-1.885.592-3.39.723.723.569 2.11.913 2.145 1.624l.202 3.366zm-172.23-78.908.296-3.402c.072-.865 1.897-1.41 2.691-1.991-.853-.142-2.916-.036-3.188-.723l-1.126-2.881-.451 3.13c-.095.675-1.434 1.126-2.216 1.659.723.285 2.501.569 2.738 1.126l1.268 3.082zm8.404-19.226 1.41 3.259.522-3.117c.13-.759 1.742-1.091 2.619-1.624-.924-.284-2.785-.213-3.093-.865l-1.328-2.798-.51 3.189c-.13.818-1.92 1.102-2.868 1.612l3.248.332zm14.532 14.164c.367 1.174.415 1.15.32-.118.118-.806-.119-2.181.332-2.43l2.252-1.209-2.406-.889c-.629-.237-.925-1.47-1.541-2.596l-.439 2.762c-.107.699-1.731 1.043-2.797 1.671l2.453.415c.64.107 1.257 1.494 1.838 2.394zm-210.268-3.958 1.755-2.407c.367-.509 1.481-.201 2.726-.296-.569-.51-1.814-1.031-1.849-1.624l-.226-3.283c-.64.746-1.137 2.489-1.837 2.548l-2.928.249 2.193 1.505c.522.356.143 2.193.166 3.308m173.997-2.94.379-3.627 2.56-1.375c-1.09-.297-2.643-.131-2.904-.688l-1.292-2.726c-.237 1.019-.118 2.548-.533 3.117-.474.664-2.24 1.032-3.224 1.435l3.354.474c.676.095.794 1.612 1.672 3.39zM204.08 157.2l1.624-2.335c.439-.64 2.584-.296 3.07-.26-1.469-.83-2.56-2.407-2.477-3.699a26 26 0 0 1-4.35 1.6l1.719 1.245c.509.368.296 1.908.426 3.438zm-15.373 50.84 1.482-2.3c.415-.64 2.086-.593 3.117-.711-.652-.628-2.169-1.339-2.181-1.956l-.047-3.212-1.636 2.999-3.189-.142 2.098 1.588c.593.45.344 2.418.332 3.746zm202.361 9.174.178-3.331 2.608-1.505-2.572-.427c-.557-.095-.783-1.458-.984-2.3-.308-.557-1.019-1.422-.782-.711-.107 1.091.154 2.857-.332 3.177l-2.312 1.482c1.032.249 2.501.083 2.738.557zm-8.937-29.361c.747.06 2.631-.261 3.117.285.557.64.972 2.05 1.506 3.473l.403-3.438c.094-.746 1.612-1.256 2.584-1.92-5.903-.439-1.577-2.062-7.61 1.6m-155.647-23.707 1.73-2.631c.368-.557 1.731-.06 2.928-.166-1.624-1.672-4.232-2.252-6.804-2.312.771.712 2.086 1.233 2.098 1.85l.06 3.259z" fill="#fff"/></g></svg>