<svg width="591" height="293" viewBox="0 0 591 293" fill="none" xmlns="http://www.w3.org/2000/svg"><g style="mix-blend-mode:lighten" opacity=".2"><path d="M581.268 74.997c-1.647 1.766-3.734 2.631-5.725 1.956-1.245-.427-2.738-2.099-2.928-3.888-.154-1.364.972-3.142 2.395-4.706l-11.534-12.21a3.7 3.7 0 0 1-.877-.307c-1.719 1.54-3.283 2.275-5.085 1.754-1.565-.462-3.034-2.015-3.295-4.03-.166-1.316.972-3.094 2.252-4.564a49 49 0 0 1-1.221-1.517l-10.265-10.988c10.609-11.154 20.329-22.095 29.74-34.02-.462-1.22-1.861-2.252-3.236-2.477-13.785 17.555-28.898 33.711-45.078 49.24-26.54 25.46-55.32 47.982-86.542 67.469-91.414 57.086-195.451 78.683-301.374 55.427-34.671-7.61-68.074-19.476-100.125-34.767-.96-.462-2.549 2.869-1.838 3.639l15.99 7.326-24.074 62.799 43.194-12.612 22.13 37.765 24.857-64.636 21.976 5.274-10.514 65.348c2.051.344 7.148-4.196 6.555-4.551.308.177 1.731.557 2.075.367l10.324-5.559-2.786-1.755c1.482-.213 2.905-.059 3.165-.663l1.292-2.999.759 4.006 18.124-9.66 29.467 32.514 11.095-68.466 20.91.178 7.479 68.833 32.562-30.914 36.935 23.671-7.337-69.378 22.877-5.452 19.226 63.593 2.868-3.295c.629-.723.961-2.762 1.079-4.03l1.351.569 7.409-10.478-3.544-.166c1.268-.854 2.809-1.292 2.785-2.063l-.095-3.129 2.43 3.212 12.091-16.761 40.681 16.322-19.938-66.237c-1.529-.509-2.453-1.375-.581-1.256l23.067-11.403 34.612 56.932 16.311-41.854 43.43 5.654-35.003-57.857 21.585-16.393c.605.711 1.411 1.505 2.122 2.027.178.094.344.213.51.332.19.106.379.19.533.225 2.359-2.596 5.512-2.49 7.373-.368 2.039 2.336.818 5.192-1.363 7.29.047.071.095.142.142.202.071.095.095.213.154.32l10.491 11.083c.331.261.616.569.865.912l.355.38c1.648-1.849 3.948-2.691 5.892-2.086 1.351.426 2.975 2.418 2.951 4.433-.012 1.28-1.268 2.868-2.489 4.445l12.079 12.647c1.742-1.624 3.366-2.655 5.061-2.299 1.031.213 2.311 1.304 3.627 2.548.036-.047.059-.095.095-.142l3.675-24.75c.331-2.252.343-4.054.912-6.175.498-1.85.866-3.675 1.304-5.678l11.605-1.09c-.498-2.952-.119-4.825 1.612-6.117 1.422-1.067 4.018-1.126 5.464.154 1.233 1.09 1.565 3.177 1.79 5.204 9.044.497 6.069-2.715 9.85-2.833 2.786-.083 2.466 3.271 13.039.83l-9.684-10.254-.071-.071z" fill="#e2e2e2"/><path d="m140.937 216.965-1.494 4.054-.296-3.509c-.071-.818-1.375-1.28-2.667-1.991l2.797-.486 1.541-3.224.498 3.271c.107.688 1.731.889 2.904 1.482l-3.271.403zm2.502-22.13.023-4.042-3.473-1.434 3.367-.451c.794-.107.853-1.944 1.707-3.497l.284 3.722 2.679 1.364c-2.833.403-3.343 1.197-4.587 4.338m10.371 14.01c-.367 1.174-.415 1.15-.32-.118-.118-.806.119-2.181-.332-2.43l-2.252-1.209 2.406-.889c.629-.237.925-1.47 1.541-2.596l.439 2.762c.107.699 1.731 1.043 2.797 1.671l-2.453.415c-.64.107-1.257 1.494-1.838 2.394zm10.798 11.913c-.616.107-.877 1.043-1.991 3.201l-.154-3.319-3.449-1.375 3.568-.463 1.517-3.2.225 3.011c.047.699 1.529 1.102 2.608 1.766l-2.312.391zm2.324-22.818-.522-3.117c-.13-.759-1.742-1.091-2.619-1.624.924-.284 2.785-.213 3.093-.865l1.328-2.798.51 3.189c.13.818 1.92 1.102 2.868 1.612l-3.248.332-1.41 3.26zm9.814 15.967-.296-3.402c-.072-.865-1.897-1.41-2.691-1.991.853-.142 2.916-.036 3.188-.723l1.126-2.881.451 3.13c.095.675 1.434 1.126 2.216 1.659-.723.285-2.501.569-2.738 1.126l-1.268 3.082zm10.609 10.929-1.564 3.295-.249-3.331c-.06-.877-1.766-1.232-2.727-1.754.972-.344 2.762-.166 3.047-.865l1.41-3.39.261 3.437c.059.83 1.612 1.28 2.774 1.98-.747.201-2.644-.048-2.975.628zm9.921 15.231-1.47 3.165-.45-3.129c-.095-.699-1.553-.925-2.537-1.434.652-.368 2.501-.237 2.821-.83l1.518-2.892.462 3.165c.107.711 1.825.924 2.916 1.493l-3.272.462zm-7.195-38.12-.379-3.627-2.56-1.375c1.09-.297 2.643-.131 2.904-.688l1.292-2.726c.237 1.019.118 2.548.533 3.117.474.664 2.24 1.032 3.224 1.435l-3.354.474c-.676.095-.794 1.612-1.672 3.39zm11.321 12.209-1.458 3.058-.178-3.331-2.608-1.505 2.572-.427c.558-.095.783-1.458.984-2.3.32-.557 1.02-1.422.783-.711.106 1.091-.155 2.857.331 3.177l2.312 1.482c-1.031.249-2.501.083-2.738.557m4.35-26.006c-.557.64-.972 2.05-1.506 3.473l-.403-3.438c-.094-.747-1.612-1.256-2.584-1.92 5.903-.439 1.577-2.063 7.61 1.6-.747.059-2.643-.261-3.117.285m123.62-4.422c.497-.581 1.908-1.126 1.955-1.79l.237-3.212 1.518 2.347c.379.581 1.884.332 3.058.486l-1.944 1.553c-.51.403-.249 1.92-.249 3.307l-1.351-1.98c-.415-.604-2.193-.663-3.224-.711m12.362 24.833-.202 3.366-1.422-2.299c-.379-.605-1.98-.617-3.094-.854 2.098-.96 2.288-2.43 2.252-5.18l1.233 2.62c.32.676 1.885.593 3.39.723-.723.569-2.11.913-2.145 1.624zm7.942-15.753-.178 4.03-1.079-2.809c-.284-.747-2.027-.664-3.603-.664 2.418-1.067 2.762-2.596 2.335-5.204l1.612 2.371c.415.605 1.719.379 3.094.522l-2.169 1.742zm4.007-17.342c.676-.509.178-2.655.178-3.58l1.967 2.478c.51.652 2.312.296 3.296.486l-2.336 1.327c-.58.332-.308 1.85-.485 3.426l-1.684-2.465c-.415-.593-2.702.047-3.366.142l2.418-1.814zm10.561 26.113c-.522.356-.143 2.193-.166 3.308l-1.755-2.407c-.367-.509-1.481-.201-2.726-.296.569-.51 1.814-1.031 1.849-1.624l.226-3.283c.64.746 1.137 2.489 1.837 2.548l2.928.249zm-4.374-40.23c1.624-1.672 4.231-2.252 6.804-2.312-.771.712-2.087 1.233-2.098 1.85l-.06 3.259-1.73-2.631c-.368-.557-1.731-.06-2.928-.166zm12.778 24.299c-.569.356-.474 1.695-.497 3.782l-2.051-2.928-3.248.261 2.454-1.755c.604-.426.237-2.193.498-3.757l1.612 3.011 3.473-.024-2.264 1.398zm3.485-17.021c.687-.474.284-2.596.438-3.829l1.529 2.738c.368.652 2.359.498 3.189.546-.865.628-1.79 1.09-2.181 1.718-.403.629 0 2.656-.214 3.9l-1.706-3.248c-.368-.711-2.632-.083-3.533-.094zm10.716 26.125c-.486.403-.285 1.813-.427 3.342l-1.268-2.062c-.368-.593-2.158-.51-3.154-.557.51-.522 2.17-1.446 2.134-2.146l-.166-3.176 1.873 2.643c.439.616 1.968.356 2.963.344l-1.967 1.612zm-2.146-43.834a26.3 26.3 0 0 0 4.35 1.6l-1.718 1.245c-.51.367-.297 1.908-.427 3.437l-1.624-2.335c-.439-.64-2.584-.296-3.07-.26 1.47-.83 2.56-2.407 2.477-3.699zm17.934 53.364c-.593.45-.344 2.418-.332 3.746l-1.481-2.3c-.415-.64-2.087-.592-3.118-.711.652-.628 2.169-1.339 2.181-1.956l.048-3.212 1.635 2.999 3.189-.142-2.098 1.588zm-5.642-26.67-2.015 1.387c-.522.355-.356 2.477-.332 3.485l-2.003-2.738-3.308.177 2.549-1.754c.616-.427.249-2.252.332-3.283l1.636 2.347c.343.498 1.849.32 3.153.391zM511.807 72.14c2.406-1.53 5.239-.273 6.247 1.766 1.043 2.11.521 4.706-1.826 6.069-1.73 1.008-4.563.38-5.784-1.387-1.387-2.003-1.15-4.872 1.351-6.46zm8.226 23.66c-2.122 1.149-4.848.829-6.199-1.601-1.067-1.92-.735-4.753 1.778-6.152 2.11-1.173 4.789-.308 5.808 1.422 1.363 2.312.925 5.086-1.387 6.33m5.146-36.366c2.216-1.624 5.061-.83 6.389 1.21 1.22 1.884 1.066 4.764-1.601 6.4-1.398.865-4.03.688-5.666-1.126-1.446-1.6-1.541-4.718.878-6.484m5.736 31.851c2.548-.984 5.109.604 5.808 2.536.865 2.395-.391 4.931-2.335 5.773-2.418 1.055-4.919-.214-5.856-2.205-1.055-2.24-.32-5.05 2.383-6.104m6.448 24.512c-2.501.676-4.8-.877-5.452-2.88-.818-2.501.379-5.026 3.247-5.785 2.62-.687 4.931 1.316 5.346 3.26.546 2.56-1.043 4.824-3.141 5.405m-3.461-33c-1.814 1.197-4.493 1.174-6.283-1.245-1.126-1.517-1.066-4.599 1.304-6.175 2.193-1.458 4.931-.747 6.294 1.351 1.186 1.837.854 4.647-1.303 6.081zm4.718-36.07c2.204-1.79 5.085-1.185 6.602.866 1.209 1.623.782 4.587-.77 5.89-2.039 1.72-4.611 1.459-6.354-.355-1.541-1.588-1.754-4.564.522-6.4m9.921 39.696c-1.885 1.245-4.516.64-5.891-1.114-1.529-1.944-1.351-4.907 1.221-6.626 2.264-1.517 4.955-.32 6.175 1.576 1.293 2.004.569 4.79-1.505 6.164m-.486-16.903c-1.837 1.66-4.599 1.376-6.33-.343-1.564-1.553-1.742-4.54.463-6.413 2.181-1.86 5.037-1.233 6.649.854 1.21 1.564.842 4.445-.782 5.903m14.307 3.864c-1.659 1.209-4.516.806-5.843-.723-1.707-1.98-1.577-4.896.699-6.674 2.205-1.719 5.156-.758 6.377 1.138 1.316 2.027.877 4.706-1.245 6.259z" fill="#000"/><path d="M525.179 59.433c2.216-1.624 5.061-.83 6.389 1.21 1.22 1.884 1.066 4.764-1.601 6.4-1.398.865-4.03.688-5.666-1.126-1.446-1.6-1.541-4.718.878-6.484m18.703 19.25c2.264-1.517 4.955-.32 6.176 1.576 1.292 2.004.569 4.79-1.506 6.164-1.884 1.245-4.516.64-5.891-1.114-1.529-1.944-1.351-4.907 1.221-6.626m-32.075-6.543c2.406-1.53 5.239-.273 6.247 1.766 1.043 2.11.521 4.706-1.826 6.069-1.73 1.008-4.563.38-5.784-1.387-1.387-2.003-1.15-4.872 1.351-6.46zM557.23 66c2.204-1.719 5.156-.758 6.377 1.138 1.316 2.027.877 4.706-1.245 6.259-1.659 1.209-4.516.806-5.843-.723-1.707-1.98-1.577-4.896.699-6.674zm-18.61-19.274c2.204-1.79 5.085-1.185 6.602.866 1.209 1.623.782 4.587-.77 5.89-2.039 1.72-4.611 1.459-6.354-.355-1.541-1.588-1.754-4.564.522-6.4m-7.705 44.557c2.548-.984 5.109.604 5.808 2.536.865 2.395-.391 4.931-2.335 5.773-2.418 1.055-4.919-.214-5.856-2.205-1.055-2.24-.32-5.05 2.383-6.104m11.273-28.52c2.181-1.86 5.037-1.233 6.649.854 1.21 1.564.842 4.445-.782 5.903-1.837 1.66-4.599 1.375-6.33-.344-1.564-1.553-1.742-4.54.463-6.413m-13.277 12.6c2.193-1.458 4.931-.747 6.295 1.352 1.185 1.837.853 4.646-1.304 6.08-1.814 1.197-4.493 1.174-6.283-1.244-1.126-1.518-1.066-4.6 1.304-6.176zm6.247 31.779c2.62-.687 4.931 1.316 5.346 3.26.546 2.56-1.043 4.824-3.141 5.405-2.501.676-4.8-.877-5.452-2.881-.818-2.501.379-5.025 3.247-5.784m3.426 24.335c.83-1.896 1.873-3.686 2.999-5.429-.463-1.92-2.738-3.852-5.322-3.177-1.743.463-2.81 1.589-3.248 2.94.106.119.213.249.308.379.237.297.486.593.747.866 1.481 1.493 2.951 2.999 4.492 4.421zm-20.661-27.381c-1.576.415-2.631 1.375-3.141 2.572 1.648 2.003 3.876 3.437 5.405 5.547.119.131.19.273.297.415 1.92-.723 3.295-2.856 2.785-5.263-.415-1.944-2.738-3.947-5.346-3.259zm-18.384-19.57c-1.387.367-2.371 1.15-2.94 2.145.237.25.451.522.605.818.047.095.118.19.177.285.664.83 1.458 1.564 2.253 2.275.462.415.936.842 1.363 1.292.486.51.901 1.067 1.315 1.636 1.802-.794 3.071-2.868 2.585-5.18-.415-1.944-2.739-3.947-5.346-3.26zm62.669-28.887a13.4 13.4 0 0 1-2.786-2.643c-.652-.842-1.233-1.72-1.825-2.596a49 49 0 0 0-.984-1.233c-2.122 1.031-2.94 3.224-2.229 5.405.652 2.003 2.952 3.556 5.453 2.88a4.32 4.32 0 0 0 2.43-1.79.2.2 0 0 1-.059-.035zm17.863 18.076c-.569-.687-1.09-1.398-1.707-2.05-.984-1.032-2.05-1.98-3.011-3.023-2.133 1.02-2.963 3.236-2.252 5.417.652 2.003 2.952 3.556 5.453 2.88 1.09-.296 2.027-1.055 2.619-2.062a15 15 0 0 1-1.09-1.162zm-20.352 14.308c2.548-.486 5.168-.652 7.764-.57a4.65 4.65 0 0 0 .332-2.915c-.415-1.944-2.738-3.948-5.346-3.26-2.869.759-4.054 3.283-3.248 5.785.107.343.284.663.486.971zm-44.107.036c2.11-1.174 4.789-.309 5.808 1.422 1.363 2.311.925 5.085-1.387 6.33-2.122 1.15-4.848.83-6.199-1.6-1.067-1.921-.735-4.754 1.778-6.153M185.791 228.131l-.249-3.331c-.06-.877-1.766-1.232-2.727-1.754.972-.344 2.762-.166 3.047-.865l1.41-3.39.261 3.437c.059.83 1.612 1.28 2.774 1.98-.747.201-2.644-.048-2.975.628l-1.565 3.295zm193.116-54.419-1.707-3.248c-.367-.711-2.631-.083-3.532-.095l2.477-1.73c.688-.474.285-2.596.439-3.829l1.529 2.738c.367.652 2.359.498 3.189.545-.866.629-1.79 1.091-2.181 1.719-.392.628 0 2.655-.214 3.9m-216.29 50.235-.154-3.319-3.449-1.375 3.568-.462 1.517-3.201.225 3.011c.047.699 1.529 1.102 2.608 1.766l-2.312.391c-.616.107-.877 1.044-1.991 3.201zm-21.68-6.982-1.494 4.054-.296-3.509c-.071-.818-1.375-1.28-2.667-1.991l2.797-.486 1.541-3.224.498 3.271c.107.688 1.731.889 2.904 1.482l-3.271.403zm2.502-22.13.023-4.042-3.473-1.434 3.367-.451c.794-.107.853-1.944 1.707-3.497l.284 3.722 2.679 1.364c-2.833.403-3.343 1.197-4.587 4.338m212.863-15.232-1.683-2.465c-.415-.593-2.702.047-3.366.142l2.418-1.814c.676-.509.178-2.655.178-3.58l1.968 2.478c.509.652 2.311.296 3.295.486l-2.335 1.327c-.581.332-.309 1.85-.486 3.426zm38.346 2.881-2.003-2.738-3.308.177 2.549-1.754c.616-.427.249-2.252.332-3.283l1.636 2.347c.343.498 1.849.32 3.153.391l-2.015 1.387c-.522.355-.356 2.477-.332 3.485zm-22.486 6.946-2.05-2.928-3.248.261 2.453-1.755c.605-.426.237-2.193.498-3.757l1.612 3.011 3.473-.024-2.264 1.398c-.569.356-.474 1.696-.497 3.782zm-174.886 50.637-1.47 3.165-.45-3.129c-.095-.699-1.553-.925-2.537-1.434.652-.368 2.501-.237 2.821-.83l1.518-2.892.462 3.165c.107.711 1.825.924 2.916 1.493l-3.272.462zm152.4-47.259-.178 4.03-1.079-2.809c-.284-.747-2.027-.664-3.603-.664 2.418-1.067 2.762-2.596 2.335-5.204l1.612 2.371c.403.605 1.719.379 3.094.522l-2.169 1.742zm36.746 5.286-1.268-2.062c-.368-.593-2.158-.51-3.154-.557.51-.522 2.17-1.446 2.134-2.146l-.166-3.176 1.873 2.643c.439.616 1.968.356 2.963.344l-1.967 1.612c-.486.403-.285 1.813-.427 3.342zm-52.475-11.663-1.351-1.98c-.415-.604-2.193-.664-3.224-.711.497-.581 1.908-1.126 1.955-1.79l.237-3.212 1.518 2.347c.379.581 1.884.332 3.058.486l-1.944 1.553c-.51.403-.249 1.92-.249 3.307M4.516 292.815l-1.422-2.299c-.38-.605-1.98-.617-3.094-.854 2.098-.96 2.288-2.43 2.252-5.18l1.233 2.62c.32.675 1.885.592 3.39.723-.723.569-2.11.913-2.145 1.624l-.202 3.366zm172.23-78.908-.296-3.402c-.072-.865-1.897-1.41-2.691-1.991.853-.142 2.916-.036 3.188-.723l1.126-2.881.451 3.13c.095.675 1.434 1.126 2.216 1.659-.723.285-2.501.569-2.738 1.126l-1.268 3.082zm-8.404-19.226-1.41 3.259-.522-3.117c-.13-.759-1.742-1.091-2.619-1.624.924-.284 2.785-.213 3.093-.865l1.328-2.798.51 3.189c.13.818 1.92 1.102 2.868 1.612l-3.248.332zm-14.532 14.164c-.367 1.174-.415 1.15-.32-.118-.118-.806.119-2.181-.332-2.43l-2.252-1.209 2.406-.889c.629-.237.925-1.47 1.541-2.596l.439 2.762c.107.699 1.731 1.043 2.797 1.671l-2.453.415c-.64.107-1.257 1.494-1.838 2.394zm210.268-3.958-1.755-2.407c-.367-.509-1.481-.201-2.726-.296.569-.51 1.814-1.031 1.849-1.624l.226-3.283c.64.746 1.137 2.489 1.837 2.548l2.928.249-2.193 1.505c-.522.356-.143 2.193-.166 3.308m-173.997-2.94-.379-3.627-2.56-1.375c1.09-.297 2.643-.131 2.904-.688l1.292-2.726c.237 1.019.118 2.548.533 3.117.474.664 2.24 1.032 3.224 1.435l-3.354.474c-.676.095-.794 1.612-1.672 3.39zM386.92 157.2l-1.624-2.335c-.439-.64-2.584-.296-3.07-.26 1.469-.83 2.56-2.407 2.477-3.699 1.493.7 2.774 1.162 4.35 1.6l-1.719 1.245c-.509.368-.296 1.908-.426 3.438zm15.373 50.84-1.482-2.3c-.415-.64-2.086-.593-3.117-.711.652-.628 2.169-1.339 2.181-1.956l.047-3.212 1.636 2.999 3.189-.142-2.098 1.588c-.593.45-.344 2.418-.332 3.746zm-202.361 9.174-.178-3.331-2.608-1.505 2.572-.427c.557-.095.783-1.458.984-2.3.308-.557 1.019-1.422.782-.711.107 1.091-.154 2.857.332 3.177l2.312 1.482c-1.032.249-2.501.083-2.738.557zm8.937-29.361c-.747.06-2.631-.261-3.117.285-.557.64-.972 2.05-1.506 3.473l-.403-3.438c-.094-.746-1.612-1.256-2.584-1.92 5.903-.439 1.577-2.062 7.61 1.6m155.647-23.707-1.73-2.631c-.368-.557-1.731-.06-2.928-.166 1.624-1.672 4.232-2.252 6.804-2.312-.771.712-2.086 1.233-2.098 1.85l-.06 3.259z" fill="#fff"/></g></svg>