<svg id="Camada_2" data-name="Camada 2" xmlns="http://www.w3.org/2000/svg" viewBox="325 0 400 390"><defs></defs><g id="Camada_1-2" data-name="Camada 1"><path class="cls-1" d="M664.06 229.12c-1.63-2.55-3.05-5.24-4.42-7.95-2.05-4.07-4.1-8.14-5.96-12.29-3.07-6.98-5.6-14.18-7.91-21.49-.4-1.27-.81-2.56-1.22-3.86 4.09.99 15.64 1.83 19.81 1.86 9.44.07 20.43-1.01 26.66-8.91 3.01-3.84 4.35-9.03 3.45-13.86-.75-2.65-1.76-5.32-2.94-7.81-10.14-21.27-36.53-40.63-57.92-51.79 2.19-9.11 1.25-51.27.99-53.88l-.06-.59-.23-.55c-6.81-16.09-23.96-26.97-37.16-33.26C581.33 7.2 562.29 1.93 544.9.3c-17.69-1.66-29.64 4.02-36.54 9.08-7.14 5.23-10.53 10.9-11.03 11.76l-22.5 36.96c-4.65-.36-9.31-.67-13.96-.91-2.87-.14-5.74-.25-8.65-.3-.26-.01-.79.02-1.05.03-8.06.47-16.09 1.39-24.07 2.67-12.56 2.15-36.57 6.42-39.97 21.09-1.4 7.7 2.76 15.18 7.88 20.61 8.22 8.6 27.95 18.95 39.44 23.4-1.73 1.16-3.46 2.33-5.17 3.53-3.14 2.19-8.28 5.98-10.37 7.53-1.31.85-2.56 1.8-3.77 2.78-12.81 10.4-21.18 26.36-21.18 43 0 2.04.1 4.18.28 6.25.25 1.84 1.2 8.92 1.47 10.9.73 5.4 2.68 19.73 3.4 24.93.52 3.26 1.63 6.17 3 9.11 3.18 6.7 8.66 13.13 15.92 14.93-10.37 7.63-20.65 17.15-28.7 27.94-4.21-1.29-8.9-.33-12.78 1.51-6.62 3.35-12.89 9.53-15.18 16.73l.04.05c1.68-.24 3.18-.63 4.65-1.03 4.1-1.17 8.11-2.9 11.8-4.76 1.77-.89 3.5-1.83 5.14-2.9-1.17 2.03-2.24 4.1-3.22 6.2-7.39 2.72-13.06 9.47-16.36 16.38-4.37 9.08-7.14 20.36-5.39 30.43 6.22-6.51 10.91-14.22 15.17-21.94 3.14-5.62 5.77-11.36 7.33-17.68.5-2.01.94-4.09 1.18-6.2 1.76-2.24 3.54-4.44 5.37-6.59-.03.07-.06.15-.09.22-.92 2.51-1.49 5.1-1.95 7.74-.98 5.65-1.61 11.56-.82 17.41l.06.03c1.44-.92 2.59-2.02 3.69-3.15 3.14-3.37 5.41-7.42 6.86-11.76.98-2.92 1.55-5.97 1.37-9.08-.19-2.95-.98-6.05-2.79-8.49.38-.41.75-.8 1.1-1.17 9.08-9.46 19.41-17.72 30.45-24.76.02-.01.03-.02.05-.03.81 2.04 4.51 6.97 6.03 8.45 8.03 7.81 15.02 11.26 23.3 12.16.34.45.69.9 1 1.38 5.02 7.27 6.27 16.57 4.72 25.16-.25 1.48-.6 2.93-1.06 4.35-.1.46-1.42 5.83-1.48 6.16-.24 1.26-.69 3.58-.93 4.87-.3 1.6-.58 4-.81 5.64-.17 1.58-.28 3.42-.41 5.01 0 .5-.08 3.07-.08 3.63 0 1.4.09 2.99.17 4.39.16 1.38.3 3.09.58 4.44.56 3.1 1.43 6.12 2.97 8.92.55 1 1.23 2.02 2.01 2.86l.07.07.08.09.17.17 4.32 4.23c.85-2.87 2.05-7.41 3.3-10.12.55-1.3 1.16-2.57 1.8-3.83 2.18 11.84 6.61 23.31 13.92 32.93 3 3.94 6.45 7.62 10.46 10.57.71.51 2.74 1.84 3.52 2.35 2.14-2.38 4.52-5.03 6.44-7.52 3.25-4.12 6.38-8.18 10.01-11.9 5.69-5.89 12.22-11.1 18.91-15.8 10.95-7.71 23.61-13.75 35.65-19.92 9.45-4.81 19.17-10.1 28.27-15.56 5.34-3.29 11.3-6.96 16.41-10.58 3.99-2.91 7.92-6.22 11.38-9.73 7.77-7.85 14.05-17.28 17.78-27.7 1.96-5.64 3.39-11.58 3.33-17.58h-.19c-1.03 4.1-2.6 8.05-4.41 11.86-4.91 10.27-12 19.43-20.45 27-6.1 5.56-13 10.12-20.13 14.28-13.49 8.13-27.87 15.39-41.99 22.41-7.7 3.86-15.52 7.83-22.84 12.4-4.65 2.85-9.2 6.13-13.48 9.51-5.14 4.13-10.16 8.6-14.55 13.58-3.65 4.06-6.88 8.63-9.94 13.09-.51.74-1.02 1.45-1.53 2.17-7.79-6.81-13.13-16.15-16.47-25.87-2.25-6.72-3.58-13.69-4.14-20.78l-.74-9.31c-1.19 1.56-6.41 8.02-7.39 9.52-1.72 2.49-3.25 5.1-4.61 7.79l-.12-.88c-.13-.69-.22-1.76-.27-2.46-.06-.75-.16-1.76-.14-2.51 0-.76-.08-1.78-.03-2.55.05-.92.06-2.97.16-3.86.14-1.26.19-2.64.35-3.89l.35-2.6c.16-1.49.57-3.71.84-5.21.14-.74.31-1.89.49-2.6l1.13-5.19c.95-3.37 1.39-6.87 1.48-10.36.15-6.64-1.27-13.38-4.51-19.21-.61-1.09-1.29-2.15-2.02-3.16 13.53-.86 27.57-7.16 37.4-16.1l-.12-.15c-2.84 1.55-5.77 2.9-8.71 4.12a88 88 0 0 1-8.97 3.16c-4.51 1.31-9.07 2.25-13.74 2.46-8.6.39-17.17-1.4-25-4.85-3.96-1.68-9-3.85-12.77-6.2-.7-.43-3.86-2.79-4.74-3.19 3.99-2.53 8.14-4.98 12.35-7.13l.15.09c4.21 2.45 8.84 4.13 13.63 5.01 5.07.91 10.34.88 15.38-.16.49-.07 1.66-.39 2.15-.51 1.19-.27 2.35-.72 3.51-1.09.78-.29 1.94-.78 2.72-1.09.46-.21 1.5-.73 1.96-.96 6.81-3.47 12.49-8.68 17.22-14.57.44-.6 1.99-2.53 2.37-3.12 2.53-4 4.62-8.31 5.91-12.87.31-1.11.53-2.25.72-3.39.03-.27.07-.73.11-1.1 3.94 1.26 7.6 4.36 11.07 8.62-.25-4.02-1.09-7.9-4.17-11.27-2.74-3.34-6.42-4.74-11.02-4.23-3.92.82-7.34 2.37-9.65 5.54 4.39-.76 8.67-.52 12.81 1l-.2.43-.28.6c-2.5 4.93-5.83 9.4-9.4 13.59-.67.72-2.19 2.18-2.88 2.89-1.09.96-2.21 2.06-3.35 2.96-6.89 5.75-15.14 10.08-24.12 11-2.15.26-4.39.23-6.55.12-.4-.05-1.37-.12-1.79-.18-1.14-.17-2.44-.35-3.56-.59-3.88-.85-7.7-2.16-11.18-4.07-7.53-6.15-10.33-27.67-11.96-38.22h-.5c-.64 5.44-.74 10.93-.47 16.41.38 6.13 1.31 14.55 4.28 21.03-1.97 1.23-4.01 2.15-5.98 2.51-8.39 1.6-13.75-7.32-16.19-14.21-.36-1.03-.7-2.28-.85-3.28l-1.11-8.26c-.9-6.61-2.77-20.4-3.66-26.88-.1-.55-.13-1.37-.17-1.93-1.24-14.24 4.68-28.39 14.94-38.23 1.81-1.76 3.73-3.41 5.81-4.82 3.59-2.68 7.15-5.41 10.67-8.19 10.26-8.27 20.27-16.97 29.38-26.52l-.06-.08c-2.85 1.4-6 3.19-8.76 4.74-3.49 2.02-6.93 4.11-10.35 6.24.34-1.46.69-2.93 1.05-4.37 1.33-5.91 3.91-10.97 9.19-14.15 3.2-1.92 6.41-3.97 9.52-5.99 3.71-2.43 7.66-4.83 10.83-7.99 27.52 1.15 56.48 8.16 80.81 16.56 3.78 1.36 12.31 4.82 16.18 6.4-.19.25-.39.48-.57.74 7.84-1.45 15.39-4.48 21.3-9.96.88-.81 1.73-1.67 2.53-2.59.58-.69 1.24-1.46 1.9-2.07 2.84-2.74 6.79-4.12 10.72-3.83 6.66.56 9.5 8.79 9.86 14.62.17 2.72.18 5.46-.46 8.14-1.57 6.02-5.07 11.68-10.25 15.31-.65.46-1.42.87-1.98 1.43l.25.42c.97-.5 2.03-.67 3.04-1.1.65-.25 1.28-.54 1.91-.85.61.64 1.21 1.53 1.52 2.32 2.79 5.41 5.68 10.74 8.51 16.06 5.04 9.55 10.04 19.02 13.78 29.11 3.96 10.23 6.62 20.92 10.8 31.12 1.23 2.93 2.71 5.94 4.22 8.73 3.78 7.15 8.84 13.55 14.41 19.4 3.29 3.58 7.24 6.54 11.41 9.03 4.12 2.46 8.45 4.45 12.96 6 1.5.5 3 .96 4.52 1.36l.1-.28c-11.18-5.06-21.27-12.66-27.92-22.99ZM584.19 95.93c-2.28 2.4-4.77 4.65-7.17 7-1.15-.49-2.57-1.06-2.7-1.23-32.32-13.57-74.64-25.59-109.7-21.3-8.19 1.08-16.42 2.98-23.81 6.75-1.02.54-2.1 1.14-3.03 1.82 2.14-.68 4.57-1.13 6.77-1.53 6.09-.92 12.4-1.41 18.83-1.53l-.21.12c-3.67 2.11-7.59 4.38-11.26 6.43-3.15 1.62-6.12 3.7-8.43 6.44-3.8 4.39-5.6 9.67-6.79 15.17-.81 3.46-1.54 6.92-2.11 10.43-10.7-7.47-30.29-19.53-36.68-30.47-1.16-2.06-2.14-4.25-2.64-6.56-.34-1.69-.52-3.33-.14-4.97 1.3-4.16 6.63-6.8 10.46-8.54 12.27-5.14 25.72-7.23 38.95-8.53 2.37-.23 4.93-.42 7.31-.55 2.86.02 5.75.15 8.65.28 34.03 1.76 68.13 6.53 100.84 16.26 8.64 2.59 18.54 6.09 26.95 9.64-.13.19-.28.37-.41.57-1.09 1.53-2.35 2.94-3.67 4.32Zm28.46-13.04c-3.94-1.55-8.3-1.49-12.36-.43a20.2 20.2 0 0 0-5.25 2.23l-6.96-2.46-2.41-.9-2.27-.71c-4.97-1.97-10.73-3.84-15.8-5.48-27.32-8.55-55.61-13.6-84.1-16.28l6.56-10.78c3.05-.17 6.1-.25 9.16-.28 15.39-.19 30.71 2.2 45.71 5.75 3.31.81 7.51 1.9 10.79 2.81 15.1 4.12 29.36 10.08 44.35 14.84-9.71-6.52-20.49-11.15-31.34-15.36-12.68-4.81-25.82-8.74-39.17-11.18-10.45-1.88-23.98-3.66-35.75-2.72l10.21-16.78.08-.14s2.84-5.01 9.16-9.54c8.41-6.03 18.81-8.52 30.9-7.39 32.9 3.08 72.63 19.77 82.72 42.44.89 9.34-.34 42.44-1.72 48.31l-.47-.23c-1.61-6.79-5.59-13.18-12.04-15.7Zm13.61 60.67c4.7 3.14 9.4 6.31 13.18 10.23l.2-.13a39 39 0 0 0-1.68-3.11c-2.72-4.56-6.01-8.79-9.5-12.79-2.75-3.1-5.63-6.11-8.8-8.77-1.32-1.09-2.77-2.42-4.16-3.52.3-.25.6-.51.89-.77 2.56-2.33 4.89-5.18 6.39-8.37 1.22-2.46 2.22-5.13 2.59-7.87.02-.14.02-.29.03-.44l4.71 2.22c4.08 2.31 8.38 5 12.33 7.55 16.63 10.99 37.91 27.32 44.65 46.6v.03c.13.58.18 1.28.16 1.93-.02 3.27-1.62 6.25-4.13 8.33-1.33 1.1-2.96 2.09-4.58 2.83-.13.06-.51.25-.63.3-.15.06-.94.37-1.11.44-6.23 2.43-11.08 3.86-19.74 4.6-1.38.12-11.17-.18-12.72.01-.96-3.03-1.97-6.08-3.06-9.02-4.08-10.53-9.44-20.48-15.03-30.29Z"/><path class="cls-1" d="M451.53 167.33c-3.68.18-6.55 1.61-8.68 4.19-2.55 2.86-3.38 5.77-3.36 8.72.04 1.86.24 3.86.5 5.89 1.64-5.02 4.64-8.13 9.01-9.3 4.72.16 8.2-.29 9.42-1.87 1.1-2.46.77-4.37-.75-5.81-2.05-1.61-4.1-2.12-6.14-1.83Zm-42.71-.81c-1.9.44-3.05 1.45-3.58 4.01-.3 2.58.73 3.88 2.78 4.21 1.02-.03 2 .36 2.93 1.22 1.34 1.07 2.35 2.95 3.11 5.4l.83 3.57c.13-.27.26-.58.38-.91.34-.94.61-2.12.79-3.57.08-2.9-.17-5.94-1.29-9.34h-.04c-.86-2.85-2.55-5.04-5.91-4.59m150.01-49.34c-1.63-2.89-4.73-5.55-9.47-7.97-4.16-1.73-8.61-2.44-13.45-1.74-4.24.92-7.59 2.89-10.54 5.31-3.28 3.21-5.67 7.22-7.06 12.12 5.2-5.82 10.9-10.72 18.68-11.79 7.71-.7 15 .57 21.84 4.07m-25.32 17.35c.51 2.02 1.34 3.34 2.49 3.99q3.81-.615 7.56-.42c3.53-.06 6.72.67 9.88 1.99 1.21-1.55 1.8-3.61 1.91-6.06 5.71 1 9.71 0 11.71-3.32-3.59.12-7.03-.54-10.3-1.99-4.59-2.92-9.37-4.48-14.45-4.07-4.4.1-8.58 1.85-12.54 5.31-2.03 1.75-4 4.07-5.89 7.06-1.14 1.51-2.07 3.87-2.74 7.31 2.47-2.08 4.91-3.51 7.31-4.23 1.19-2.25 2.69-4.25 5.06-5.56Zm17.5 14.41c3.44.38 7.08 1.52 10.88 3.32-2.82-2.89-6.45-5.17-11.37-6.48-3.7-.92-7.56-1.23-11.62-.75-5.36.49-9.24 1.79-11.96 3.74 3.13-.05 6.57-.21 10.38-.5 4.98-.32 9.64-.22 13.7.66Zm57.37-52.49c-4.18-.05-8.05 1.53-11.35 6.18-1.79 2.28-3.81 5.76-5.93 9.84-1.93 3.79-4.17 6.37-8.22 8.01 4.94.61 8.36.29 11.32-1.84 2.95-2.51 6.67-3.75 11.83-2.56-2.12-2.54-5.23-3.52-9.49-2.71 1.14-2.81 2.62-5.93 4.55-9.44 2.04-3.43 4.42-6.06 7.28-7.49ZM421.36 74.42c-2.47.22-4.96.77-7.31 1.59-3.14 1.16-6.16 2.85-8.31 5.53-3.07 3.73-3.12 9.16.44 12.59-1.8-5.6.18-9.8 4.85-12.84 4.45-2.93 9.65-4.61 14.57-6.96a27.4 27.4 0 0 0-4.25.08Zm-3.35 20.09c-1.32-3.17-1.4-6.25-.43-9.71-2.49 1.31-3.76 4.28-3.68 7.02.15 4.59 3.66 8.67 7.97 9.98-1.34-2.64-2.78-4.69-3.86-7.29m8.41-9.74c-1.84 1.77-2.79 4.84-1.37 7.13 1.12-1.73 2.31-3.3 3.74-4.68 1.55-1.5 3-2.47 4.66-4.1-2.45-.91-5.2-.11-7.04 1.65Zm-7.16 21.14c.46 3.64 4.59 6.79 8.22 5.79-1.59-3.19-4.62-5.54-8.22-5.79m14.95-29.14c13.14-1.6 25.92-5.07 39.23-3.74-1.46-.88-3.08-1.5-4.74-1.97-10.57-2.87-25.15.26-34.49 5.71m92.84 2.42c6.94 2.71 13.99 4.4 21.14 6.31 2.38.59 4.72 1.25 7.25 1.72-.47-.44-.96-.85-1.46-1.25-6.89-5.3-18.36-8.14-26.94-6.79Zm147.63 90.4c-.62.98-1.43 1.81-2.29 2.64 1.23-.2 2.43-.69 3.5-1.48 2.22-1.62 3.27-4.64 3.07-7.33-.37-6.02-4.84-12.26-9.74-15.47 1.93 4.31 4.27 8.33 5.74 12.68 1.02 3.11 1.5 6.17-.28 8.96m-7.71-1.66c-2.08.87-4.9 1.93-7.01 2.71-2.43.93-4.7 1.79-7 3.27 4.78 2.11 12.84-.48 14.01-5.98m-4.34-8.35c.09.92.09 1.88.04 2.94 1.49-1.55 2.14-3.81 2.09-5.95-.15-6.09-5.17-12.21-10.68-14.42 1.96 3.47 4.11 6.43 5.94 9.86 1.27 2.39 2.31 4.85 2.6 7.57ZM615.42 42.09c-.25-.3-.51-.6-.79-.89-.74-2.02-1.97-3.78-3.64-4.79 0 .68.03 1.38.08 2.09-2.12-1.16-4.51-1.83-6.8-1.72 1.78 2.23 3.86 3.76 6.11 5.29.4.27.82.54 1.25.81.54 2.79 1.47 5.51 2.92 7.72.74-1.55 1.03-3.5.91-5.47.41.24 1.71.98 1.71.98-.08-1.51-.84-2.88-1.74-4.04Zm-17.81-4.46c.21.55.41 1.13.68 1.77.9-1.03 1.29-2.36 1.39-3.69.24-3.75-1.87-7.94-5.32-9.57.1 1.2.3 2.35.57 3.47-2.42-1.65-5.63-2.33-8.23-1.42 2.25 2.42 5.83 4.3 9.28 4.97.51 1.48 1.08 2.95 1.63 4.47m-2.5 4.76c2.91 2.94 6.55 4.72 9.25 7.68.77.88 1.31 1.93 1.59 3.53 1.19-1.2 1.38-3.21.79-4.78-1.62-4.34-7.21-6.99-11.63-6.43m-79.54-15.75c-2.36.42-4.8 1.05-6.77 2.48 4.59-.08 9.09.32 13.65.7 4.58.34 9.17.95 13.81.79-5.96-3.59-13.82-5.02-20.69-3.98Zm18.11-8.19c.32-.57.63-1.16.93-1.75.15-.32.29-.64.44-.97h.05c3.32-.13 6.3-.4 9.7-.73-4.78-4.04-14.56-3.19-19.55.12 2.2.48 4.33.63 6.48.65-.76.79-1.45 1.69-2.02 2.67-5.58.21-11.06 1.38-15.67 3.41 4.79-.11 9.57-.24 14.32-.16-.3 1.2-.41 2.44-.25 3.65 1.11-.86 1.93-1.77 2.71-2.7.23-.29.46-.57.68-.87 5.48.21 10.93.76 16.34 1.99 2.09.44 4.07 1.04 6.17 1.64a24 24 0 0 0-3.2-2.28c-4.87-2.87-10.94-4.38-17.13-4.67m-82.72 306.73a153 153 0 0 1-48.47-43.84c-1.15 3.2-1.07 8.03-1.07 8.03 1.13 12.73-7.18 24.61-12.78 31.07 21.93 23.69 49.87 41.73 81.39 51.63-17.41-19.2-19.47-37.43-19.07-46.9Zm-62.31-53.62 3.6-6.69c-11.45-21.34-17.96-45.71-17.96-71.57 0-30.19 8.86-58.36 24.12-82.03-9.84-8.71-22-22.13-19.59-33.63-25.08 31.87-40.06 72.05-40.06 115.66 0 32.71 8.44 63.49 23.23 90.28 10.35-14.68 26.66-12.02 26.66-12.02"/><path class="cls-1" d="M639.31 90.16c-.42 8.46-.39 7.98-.46 9.95 0 .13 9.36 5.6 15.2 9.49 14.98 8.03 55.08 34.33 45.81 61.74 0 0-2.57 11.13-21.96 19.26.02.89.03 1.79.03 2.68 0 14.02-1.92 27.61-5.5 40.51 4.17 4.65 12.96 11.97 30.98 20.05 6.51-19.01 10.05-39.38 10.05-60.56 0-61.59-29.87-116.32-75.88-150.49 1.65 15.49 2.52 36.38 1.72 47.36ZM467.13 53.39c5.98.86 4.72.55 6.17.93 12.45-23.75 21.52-41.05 32.52-47.28-45.75 4.95-86.6 26.43-116.46 58.34 25.45-14.55 65.14-12.94 77.77-11.98Zm201.35 192.67c-18.25 49.09-60.37 86.65-112.85 96.73-15.25 7.81-38.68 28.1-44.67 37.61 4.63.34 10.44.25 15.15.25 81.53 0 151.05-52.35 176.75-125.2-6 1.01-20.66 1.91-34.38-9.39"/></g></svg>